<svg width="40" height="40" viewBox="0 0 40 40" fill="none" xmlns="http://www.w3.org/2000/svg">
<g clip-path="url(#clip0_270_12)">
<path d="M8 8C8 5.23858 10.2386 3 13 3H21.5036C22.7853 3 24.0181 3.49222 24.9474 4.375L31.9437 11.0216C32.9374 11.9655 33.5 13.276 33.5 14.6466V32C33.5 34.7614 31.2614 37 28.5 37H13C10.2386 37 8 34.7614 8 32V8Z" fill="white"/>
<path d="M23.7945 2.30292C23.6062 2.10926 23.3476 2 23.0775 2H9.5C7.575 2 6.0175 3.62 6.0175 5.6L6 34.4C6 36.38 7.5575 38 9.4825 38H30.5C32.425 38 34 36.38 34 34.4V13.206C34 12.9456 33.8985 12.6956 33.717 12.5089L23.7945 2.30292ZM10.5 34.4C9.94772 34.4 9.5 33.9523 9.5 33.4V6.6C9.5 6.04771 9.94772 5.6 10.5 5.6H20.75C21.3023 5.6 21.75 6.04772 21.75 6.6V13.6C21.75 14.1523 22.1977 14.6 22.75 14.6H29.5C30.0523 14.6 30.5 15.0477 30.5 15.6V33.4C30.5 33.9523 30.0523 34.4 29.5 34.4H10.5Z" fill="#44403C"/>
<line x1="11.5" y1="8.5" x2="19.5" y2="8.5" stroke="#44403C" stroke-linecap="round"/>
<line x1="11.5" y1="20.5" x2="21.5" y2="20.5" stroke="#44403C" stroke-linecap="round"/>
<line x1="11.5" y1="11.5" x2="19.5" y2="11.5" stroke="#44403C" stroke-linecap="round"/>
<line x1="11.5" y1="14.5" x2="19.5" y2="14.5" stroke="#44403C" stroke-linecap="round"/>
<line x1="11.5" y1="17.5" x2="28.5" y2="17.5" stroke="#44403C" stroke-linecap="round"/>
<path d="M24 21.3C24 21.1343 24.1343 21 24.3 21H26.7C26.8657 21 27 21.1343 27 21.3V28H24V21.3Z" fill="#44403C"/>
<path d="M25.7258 31.742C25.6062 31.8786 25.3938 31.8786 25.2742 31.742L22.4354 28.4976C22.2656 28.3036 22.4034 28 22.6611 28H28.3389C28.5966 28 28.7344 28.3036 28.5646 28.4976L25.7258 31.742Z" fill="#44403C"/>
<path d="M12.3303 29V25.7273H13.321V26.3281H13.3572C13.4254 26.1293 13.5405 25.9723 13.7024 25.8572C13.8643 25.7422 14.0575 25.6847 14.282 25.6847C14.5092 25.6847 14.7038 25.7429 14.8658 25.8594C15.0277 25.9759 15.1307 26.1321 15.1747 26.3281H15.2088C15.2699 26.1335 15.3892 25.978 15.5668 25.8615C15.7443 25.7436 15.9538 25.6847 16.1953 25.6847C16.505 25.6847 16.7564 25.7841 16.9496 25.983C17.1428 26.1804 17.2393 26.4517 17.2393 26.7969V29H16.1974V27.0355C16.1974 26.8722 16.1555 26.7479 16.0717 26.6626C15.9879 26.576 15.8793 26.5327 15.7457 26.5327C15.6023 26.5327 15.4893 26.5795 15.407 26.6733C15.326 26.7656 15.2855 26.8899 15.2855 27.0462V29H14.2841V27.0249C14.2841 26.8729 14.2429 26.7528 14.1605 26.6648C14.0781 26.5767 13.9695 26.5327 13.8345 26.5327C13.7436 26.5327 13.6634 26.5547 13.5938 26.5987C13.5241 26.6413 13.4695 26.7024 13.4297 26.782C13.3913 26.8615 13.3722 26.9553 13.3722 27.0632V29H12.3303ZM19.0803 29.0469C18.8388 29.0469 18.6193 28.9844 18.4219 28.8594C18.2244 28.7344 18.0668 28.5469 17.9489 28.2969C17.831 28.0469 17.772 27.7365 17.772 27.3658C17.772 26.9808 17.8331 26.6641 17.9553 26.4155C18.0774 26.1669 18.2372 25.983 18.4347 25.8636C18.6335 25.7443 18.8473 25.6847 19.076 25.6847C19.2479 25.6847 19.3949 25.7145 19.517 25.7741C19.6392 25.8324 19.7401 25.9077 19.8196 26C19.8991 26.0923 19.9595 26.1882 20.0007 26.2876H20.022V24.6364H21.0639V29H20.0327V28.4695H20.0007C19.9567 28.5703 19.8942 28.6648 19.8132 28.7528C19.7322 28.8409 19.6307 28.9119 19.5085 28.9659C19.3878 29.0199 19.245 29.0469 19.0803 29.0469ZM19.4425 28.2351C19.5689 28.2351 19.6768 28.1996 19.7663 28.1286C19.8558 28.0561 19.9247 27.9545 19.973 27.8239C20.0213 27.6932 20.0455 27.5398 20.0455 27.3636C20.0455 27.1847 20.0213 27.0305 19.973 26.9013C19.9261 26.772 19.8572 26.6726 19.7663 26.603C19.6768 26.5334 19.5689 26.4986 19.4425 26.4986C19.3132 26.4986 19.2038 26.5341 19.1143 26.6051C19.0249 26.6761 18.9567 26.7763 18.9098 26.9055C18.8643 27.0348 18.8416 27.1875 18.8416 27.3636C18.8416 27.5398 18.8651 27.6932 18.9119 27.8239C18.9588 27.9545 19.0263 28.0561 19.1143 28.1286C19.2038 28.1996 19.3132 28.2351 19.4425 28.2351Z" fill="#44403C"/>
</g>
<defs>
<clipPath id="clip0_270_12">
<rect width="40" height="40" fill="white"/>
</clipPath>
</defs>
</svg>
